<svg xmlns="http://www.w3.org/2000/svg" viewBox="0 0 420 420"><path d="M177.6,370.3 L190.9,356.6 L202.0,346.9 L208.7,342.8 L217.0,337.2 L217.2,329.2 L212.3,323.4 L207.4,325.3 L209.3,319.5 L210.6,313.6 L210.7,308.1 L207.1,306.2 L203.4,307.9 L199.7,307.4 L198.5,303.5 L197.6,294.3 L195.7,291.3 L189.1,288.6 L185.0,290.6 L174.6,288.7 L175.2,275.0 L172.3,269.4 L175.4,267.4 L174.4,261.6 L177.1,257.2 L178.9,249.3 L176.6,243.1 L171.1,240.2 L170.1,236.3 L171.5,230.5 L152.5,230.1 L148.7,218.4 L151.6,218.2 L151.5,213.9 L149.6,210.9 L149.1,205.1 L143.4,202.1 L137.1,202.2 L133.0,199.3 L126.3,197.3 L122.5,193.6 L111.4,191.9 L100.6,182.9 L101.4,176.2 L100.2,172.3 L101.2,164.8 L88.3,166.5 L83.1,170.3 L74.4,174.3 L72.2,177.4 L67.1,177.6 L59.7,176.7 L54.1,178.5 L49.6,177.3 L50.3,162.1 L42.2,168.0 L33.4,167.7 L29.7,162.4 L23.1,161.8 L25.2,157.5 L19.7,151.3 L15.6,142.3 L18.2,140.5 L18.2,136.2 L24.1,133.3 L23.2,127.9 L25.7,124.4 L26.4,119.7 L37.7,112.9 L45.9,110.9 L47.2,109.4 L56.1,109.9 L60.6,82.3 L60.8,78.0 L59.2,72.2 L54.9,68.6 L54.9,61.3 L60.5,59.6 L62.5,60.6 L62.8,56.8 L57.0,55.8 L56.9,49.5 L76.2,49.7 L79.4,46.2 L82.2,49.4 L84.1,55.3 L86.0,54.1 L91.5,59.4 L99.2,58.8 L101.1,55.7 L108.4,53.3 L112.5,51.7 L113.7,47.4 L120.7,44.6 L120.2,42.5 L111.8,41.6 L110.4,35.3 L110.8,28.5 L106.4,25.9 L108.3,25.0 L115.6,26.3 L123.5,28.8 L126.3,26.4 L133.5,24.9 L144.5,21.1 L148.2,17.3 L146.8,14.4 L152.0,14.0 L154.3,16.3 L153.0,20.7 L156.4,22.2 L158.7,26.9 L155.9,30.5 L154.4,39.0 L156.9,44.1 L157.6,48.7 L163.7,53.5 L168.6,54.0 L169.7,52.0 L172.8,51.6 L177.3,49.8 L180.5,47.1 L186.0,48.0 L188.4,47.6 L193.8,48.4 L194.7,46.4 L193.0,44.4 L194.0,41.5 L198.0,42.4 L202.7,41.3 L208.4,43.5 L212.7,45.5 L215.7,42.8 L218.0,43.2 L219.3,46.1 L224.1,45.3 L227.9,41.5 L230.9,34.1 L236.8,24.9 L240.1,24.5 L242.6,30.0 L248.1,47.6 L253.4,49.2 L253.7,56.2 L246.3,64.5 L249.3,67.5 L266.8,69.1 L267.2,79.1 L274.7,72.5 L287.2,76.2 L303.6,82.3 L308.5,88.2 L306.9,93.7 L318.4,90.6 L337.6,96.0 L352.4,95.6 L367.1,103.9 L379.7,115.1 L387.4,118.0 L395.8,118.4 L399.4,121.6 L402.8,134.4 L404.4,140.5 L400.5,157.1 L395.5,163.7 L381.5,177.6 L375.2,189.0 L367.9,197.7 L365.4,197.9 L362.6,205.3 L363.3,224.1 L360.5,239.6 L359.5,246.2 L356.4,250.2 L354.6,263.6 L344.6,276.7 L342.9,287.1 L334.9,291.5 L332.5,297.5 L321.8,297.5 L306.2,301.3 L299.2,305.8 L288.1,308.7 L276.5,316.7 L268.1,326.7 L266.6,334.2 L268.3,339.8 L266.4,349.9 L264.2,354.8 L257.3,360.3 L246.3,378.0 L237.6,386.0 L230.8,390.7 L226.3,400.3 L219.8,406.0 L217.0,400.3 L221.4,395.5 L215.7,388.7 L207.9,383.2 L197.7,376.7 L194.0,377.0 L184.1,369.2 L177.6,370.3Z" fill="#37b34a"/></svg>