<svg xmlns="http://www.w3.org/2000/svg" viewBox="0 0 420 420"><path d="M290.6,345.8 L280.6,375.2 L284.7,386.8 L278.9,406.0 L257.7,391.9 L243.6,387.9 L204.9,368.9 L208.8,349.7 L241.2,353.2 L269.5,349.1 L290.6,345.8ZM115.6,234.6 L132.2,261.1 L128.3,310.5 L115.7,308.1 L104.4,320.6 L93.9,310.7 L92.8,265.6 L86.5,244.3 L101.7,246.1 L115.6,234.6ZM203.4,27.0 L243.0,36.6 L240.0,55.0 L246.7,70.9 L224.6,65.5 L202.1,78.7 L203.6,97.3 L200.2,107.9 L209.3,126.9 L235.3,145.8 L249.2,176.6 L280.1,206.7 L301.8,206.5 L308.6,214.8 L300.8,222.2 L325.6,235.7 L346.0,247.0 L369.8,266.5 L372.6,273.5 L367.5,286.8 L352.1,269.4 L328.0,263.2 L316.3,287.4 L336.4,301.2 L333.1,320.7 L321.5,322.9 L306.7,355.0 L295.1,357.9 L295.2,346.4 L300.9,326.4 L306.9,318.4 L296.1,296.8 L287.6,278.0 L276.1,273.3 L267.9,257.2 L250.1,250.4 L238.1,235.4 L217.6,233.0 L195.9,216.1 L170.5,191.8 L151.7,170.3 L143.0,133.3 L129.2,129.0 L106.7,116.7 L93.9,121.7 L77.9,139.1 L66.4,141.8 L69.5,125.6 L54.5,120.8 L47.4,91.9 L57.0,80.6 L48.8,66.5 L49.9,56.0 L61.9,64.0 L75.2,62.2 L90.8,49.5 L95.6,55.5 L108.8,54.3 L114.8,39.2 L135.3,43.9 L147.6,37.6 L149.8,22.3 L166.6,27.6 L169.8,20.5 L197.2,14.0 L203.4,27.0Z" fill="#37b34a"/></svg>