<svg xmlns="http://www.w3.org/2000/svg" width="760" height="500" viewBox="0 0 760 500"><rect width="100%" height="100%" rx="24" fill="#f7fbff"/><g transform="translate(126.7 100.0)"><g fill="none" stroke="#263238" stroke-width="5"><circle cx="-20" r="18"/><circle cx="20" r="18"/><path d="M-2 0H2M-38-3-48-10M38-3 48-10"/></g></g><g transform="translate(253.3 100.0)"><g fill="none" stroke="#263238" stroke-width="5"><circle cx="-20" r="18"/><circle cx="20" r="18"/><path d="M-2 0H2M-38-3-48-10M38-3 48-10"/></g></g><g transform="translate(380.0 100.0)"><g fill="none" stroke="#263238" stroke-width="5"><circle cx="-20" r="18"/><circle cx="20" r="18"/><path d="M-2 0H2M-38-3-48-10M38-3 48-10"/></g></g><g transform="translate(506.7 100.0)"><g fill="none" stroke="#263238" stroke-width="5"><circle cx="-20" r="18"/><circle cx="20" r="18"/><path d="M-2 0H2M-38-3-48-10M38-3 48-10"/></g></g><g transform="translate(633.3 100.0)"><g fill="none" stroke="#263238" stroke-width="5"><circle cx="-20" r="18"/><circle cx="20" r="18"/><path d="M-2 0H2M-38-3-48-10M38-3 48-10"/></g></g><g transform="translate(126.7 200.0)"><g fill="none" stroke="#263238" stroke-width="5"><circle cx="-20" r="18"/><circle cx="20" r="18"/><path d="M-2 0H2M-38-3-48-10M38-3 48-10"/></g></g><g transform="translate(253.3 200.0)"><g fill="none" stroke="#263238" stroke-width="5"><circle cx="-20" r="18"/><circle cx="20" r="18"/><path d="M-2 0H2M-38-3-48-10M38-3 48-10"/></g></g><g transform="translate(380.0 200.0)"><g fill="none" stroke="#263238" stroke-width="5"><circle cx="-20" r="18"/><circle cx="20" r="18"/><path d="M-2 0H2M-38-3-48-10M38-3 48-10"/></g></g><g transform="translate(506.7 200.0)"><g fill="none" stroke="#d32f2f" stroke-width="5"><circle cx="-20" r="18"/><circle cx="20" r="18"/><path d="M-5 4Q0-6 5 4M-38-3-48-10M38-3 48-10"/></g></g><g transform="translate(633.3 200.0)"><g fill="none" stroke="#263238" stroke-width="5"><circle cx="-20" r="18"/><circle cx="20" r="18"/><path d="M-2 0H2M-38-3-48-10M38-3 48-10"/></g></g><g transform="translate(126.7 300.0)"><g fill="none" stroke="#263238" stroke-width="5"><circle cx="-20" r="18"/><circle cx="20" r="18"/><path d="M-2 0H2M-38-3-48-10M38-3 48-10"/></g></g><g transform="translate(253.3 300.0)"><g fill="none" stroke="#263238" stroke-width="5"><circle cx="-20" r="18"/><circle cx="20" r="18"/><path d="M-2 0H2M-38-3-48-10M38-3 48-10"/></g></g><g transform="translate(380.0 300.0)"><g fill="none" stroke="#263238" stroke-width="5"><circle cx="-20" r="18"/><circle cx="20" r="18"/><path d="M-2 0H2M-38-3-48-10M38-3 48-10"/></g></g><g transform="translate(506.7 300.0)"><g fill="none" stroke="#263238" stroke-width="5"><circle cx="-20" r="18"/><circle cx="20" r="18"/><path d="M-2 0H2M-38-3-48-10M38-3 48-10"/></g></g><g transform="translate(633.3 300.0)"><g fill="none" stroke="#263238" stroke-width="5"><circle cx="-20" r="18"/><circle cx="20" r="18"/><path d="M-2 0H2M-38-3-48-10M38-3 48-10"/></g></g><g transform="translate(126.7 400.0)"><g fill="none" stroke="#263238" stroke-width="5"><circle cx="-20" r="18"/><circle cx="20" r="18"/><path d="M-2 0H2M-38-3-48-10M38-3 48-10"/></g></g><g transform="translate(253.3 400.0)"><g fill="none" stroke="#263238" stroke-width="5"><circle cx="-20" r="18"/><circle cx="20" r="18"/><path d="M-2 0H2M-38-3-48-10M38-3 48-10"/></g></g><g transform="translate(380.0 400.0)"><g fill="none" stroke="#263238" stroke-width="5"><circle cx="-20" r="18"/><circle cx="20" r="18"/><path d="M-2 0H2M-38-3-48-10M38-3 48-10"/></g></g><g transform="translate(506.7 400.0)"><g fill="none" stroke="#263238" stroke-width="5"><circle cx="-20" r="18"/><circle cx="20" r="18"/><path d="M-2 0H2M-38-3-48-10M38-3 48-10"/></g></g><g transform="translate(633.3 400.0)"><g fill="none" stroke="#263238" stroke-width="5"><circle cx="-20" r="18"/><circle cx="20" r="18"/><path d="M-2 0H2M-38-3-48-10M38-3 48-10"/></g></g></svg>
